<svg width="19" height="19" viewBox="0 0 19 19" fill="none" xmlns="http://www.w3.org/2000/svg">
<path d="M17.3928 14.5112C17.3928 14.7962 17.3295 15.0891 17.1949 15.3741C17.0603 15.6591 16.8862 15.9283 16.6566 16.1816C16.2687 16.6091 15.8412 16.9179 15.3583 17.1158C14.8833 17.3137 14.3687 17.4166 13.8145 17.4166C13.007 17.4166 12.1441 17.2266 11.2337 16.8387C10.3233 16.4508 9.41284 15.9283 8.51034 15.2712C7.59992 14.6062 6.737 13.87 5.91367 13.0546C5.09825 12.2312 4.362 11.3683 3.70492 10.4658C3.05575 9.56331 2.53325 8.66081 2.15325 7.76623C1.77325 6.86373 1.58325 6.00081 1.58325 5.17748C1.58325 4.63915 1.67825 4.12456 1.86825 3.64956C2.05825 3.16665 2.35909 2.72331 2.77867 2.32748C3.28534 1.82873 3.8395 1.58331 4.42534 1.58331C4.647 1.58331 4.86867 1.63081 5.06659 1.72581C5.27242 1.82081 5.4545 1.96331 5.597 2.16915L7.43367 4.7579C7.57617 4.95581 7.67909 5.1379 7.75034 5.31206C7.82159 5.47831 7.86117 5.64456 7.86117 5.79498C7.86117 5.98498 7.80575 6.17498 7.69492 6.35706C7.592 6.53915 7.44159 6.72915 7.25159 6.91915L6.64992 7.54456C6.56284 7.63165 6.52325 7.73456 6.52325 7.86123C6.52325 7.92456 6.53117 7.97998 6.547 8.04331C6.57075 8.10665 6.5945 8.15415 6.61034 8.20165C6.75284 8.4629 6.99825 8.80331 7.34659 9.21498C7.70284 9.62665 8.08284 10.0462 8.4945 10.4658C8.922 10.8854 9.33367 11.2733 9.75325 11.6296C10.1649 11.9779 10.5053 12.2154 10.7745 12.3579C10.8141 12.3737 10.8616 12.3975 10.917 12.4212C10.9803 12.445 11.0437 12.4529 11.1149 12.4529C11.2495 12.4529 11.3524 12.4054 11.4395 12.3183L12.0412 11.7246C12.2391 11.5266 12.4291 11.3762 12.6112 11.2812C12.7933 11.1704 12.9753 11.115 13.1733 11.115C13.3237 11.115 13.482 11.1466 13.6562 11.2179C13.8303 11.2891 14.0124 11.3921 14.2103 11.5266L16.8308 13.3871C17.0366 13.5296 17.1791 13.6958 17.2662 13.8937C17.3453 14.0916 17.3928 14.2896 17.3928 14.5112Z" fill="#285F98"/>
</svg>
