<svg width="19" height="19" viewBox="0 0 19 19" fill="none" xmlns="http://www.w3.org/2000/svg">
<g clip-path="url(#clip0_3_277)">
<path d="M17.2519 14.807C16.9646 15.4708 16.6244 16.0818 16.2304 16.6436C15.6932 17.4094 15.2534 17.9395 14.9145 18.2339C14.3891 18.7171 13.8261 18.9646 13.2233 18.9787C12.7905 18.9787 12.2687 18.8555 11.6611 18.6057C11.0516 18.3571 10.4915 18.2339 9.97934 18.2339C9.4422 18.2339 8.86612 18.3571 8.24993 18.6057C7.6328 18.8555 7.13565 18.9857 6.75554 18.9986C6.17747 19.0232 5.60127 18.7687 5.02613 18.2339C4.65904 17.9137 4.19989 17.3649 3.64985 16.5873C3.05969 15.757 2.5745 14.7941 2.1944 13.6963C1.78732 12.5106 1.58325 11.3625 1.58325 10.2509C1.58325 8.97756 1.85839 7.87935 2.40949 6.95905C2.84261 6.21983 3.4188 5.63671 4.13996 5.20864C4.86112 4.78057 5.64033 4.56242 6.47947 4.54847C6.93862 4.54847 7.54073 4.69049 8.28898 4.96962C9.03512 5.24969 9.51421 5.39171 9.72426 5.39171C9.8813 5.39171 10.4135 5.22564 11.3157 4.89456C12.169 4.58752 12.8891 4.46039 13.479 4.51047C15.0775 4.63948 16.2785 5.26963 17.0771 6.4049C15.6475 7.27113 14.9403 8.4844 14.9544 10.0408C14.9673 11.2532 15.4071 12.262 16.2714 13.063C16.6631 13.4348 17.1006 13.7221 17.5873 13.9262C17.4818 14.2323 17.3703 14.5255 17.2519 14.807ZM13.5857 0.380322C13.5857 1.33054 13.2386 2.21775 12.5466 3.03895C11.7116 4.01519 10.7016 4.57931 9.60627 4.4903C9.59232 4.3763 9.58422 4.25632 9.58422 4.13025C9.58422 3.21804 9.98133 2.2418 10.6865 1.44359C11.0386 1.03944 11.4864 0.703394 12.0294 0.435326C12.5712 0.171257 13.0837 0.0252216 13.5658 0.000213623C13.5798 0.127243 13.5857 0.25428 13.5857 0.38031V0.380322Z" fill="black"/>
</g>
<defs>
<clipPath id="clip0_3_277">
<rect width="19" height="19" fill="white"/>
</clipPath>
</defs>
</svg>
