<svg width="19" height="19" viewBox="0 0 19 19" fill="none" xmlns="http://www.w3.org/2000/svg">
<g clip-path="url(#clip0_3_276)">
<path d="M9.49976 7.77271V11.4518H14.6125C14.388 12.635 13.7142 13.6368 12.7038 14.3105L15.787 16.7028C17.5833 15.0446 18.6197 12.6092 18.6197 9.71598C18.6197 9.04236 18.5593 8.39457 18.447 7.77281L9.49976 7.77271Z" fill="#4285F4"/>
<path d="M4.17582 11.3082L3.48045 11.8405L1.01904 13.7577C2.58222 16.8581 5.78607 19 9.49968 19C12.0646 19 14.215 18.1536 15.7869 16.7027L12.7037 14.3104C11.8574 14.8804 10.7778 15.2259 9.49968 15.2259C7.02969 15.2259 4.93112 13.5591 4.1797 11.3137L4.17582 11.3082Z" fill="#34A853"/>
<path d="M1.01902 5.24228C0.371325 6.52041 0 7.9627 0 9.49995C0 11.0372 0.371325 12.4795 1.01902 13.7576C1.01902 13.7662 4.17998 11.3049 4.17998 11.3049C3.98998 10.7349 3.87768 10.1304 3.87768 9.49985C3.87768 8.86931 3.98998 8.2648 4.17998 7.69481L1.01902 5.24228Z" fill="#FBBC05"/>
<path d="M9.49988 3.78272C10.899 3.78272 12.1426 4.26635 13.1358 5.19909L15.8562 2.47867C14.2067 0.941422 12.0649 0 9.49988 0C5.78627 0 2.58222 2.13318 1.01904 5.24228L4.17991 7.69501C4.93123 5.44953 7.02989 3.78272 9.49988 3.78272Z" fill="#EA4335"/>
</g>
<defs>
<clipPath id="clip0_3_276">
<rect width="19" height="19" fill="white"/>
</clipPath>
</defs>
</svg>
