<svg width="300" height="327" viewBox="0 0 300 327" fill="none" xmlns="http://www.w3.org/2000/svg">
<g clip-path="url(#clip0_4_1401)">
<path d="M245.586 153.798C254.87 159.784 263.567 167.8 271.713 177.686V192.803C267.738 191.45 252.566 185.842 246.575 176.972C239.651 166.722 238.419 151.162 244.186 147.266C245.688 146.254 247.513 146.128 249.514 146.683C255.827 151.223 261.864 156.728 267.631 163.143C269.675 166.283 270.939 170.282 271.713 174.322V174.514C264.253 164.128 255.482 157.391 245.586 153.798Z" fill="#285F98"/>
<path d="M245.119 60.9515C254.404 66.9375 263.101 74.9532 271.247 84.8397V88.2923C270.468 88.0263 269.264 87.6017 267.78 87.0185C261.118 79.1196 253.522 73.8007 245.119 70.7494C250.998 74.5379 256.643 79.1429 262.06 84.5224C256.331 81.765 249.631 77.6779 246.108 72.4617C245.735 71.9111 245.38 71.3559 245.045 70.796C239.119 60.9608 238.727 50.1738 244.186 46.488C249.953 42.5921 260.063 48.1116 266.987 58.3574C270.99 64.2874 272.115 73.4881 272.343 80.1833C271.975 80.6686 271.611 81.1631 271.247 81.667C263.786 71.2813 255.015 64.5441 245.119 60.9515Z" fill="#285F98"/>
<path d="M297.972 116.102V116.107C297.309 117.94 296.479 119.793 295.49 121.617C294.02 124.332 291.762 126.852 289.205 129.105C286.466 131.522 283.378 133.631 280.536 135.343C276.57 137.737 273.085 139.36 271.713 139.976V138.507C279.594 129.129 287.973 121.486 296.908 115.729C287.418 119.172 278.968 125.517 271.713 135.189V128.709C279.594 119.331 287.973 111.688 296.908 105.931C287.418 109.374 278.968 115.72 271.713 125.391V118.911C279.491 109.659 287.749 102.096 296.553 96.3664C300.678 99.6837 301.037 107.685 297.972 116.102Z" fill="#285F98"/>
<path d="M67.0383 181.601C104.063 181.601 134.077 151.587 134.077 114.563C134.077 77.5388 104.063 47.5247 67.0383 47.5247C30.0141 47.5247 0 77.5388 0 114.563C0 151.587 30.0141 181.601 67.0383 181.601Z" fill="#FF6884"/>
<path d="M277.077 222.044C282.716 226.793 284.835 233.553 281.812 237.141C278.789 240.729 271.768 239.786 266.128 235.034C263.849 233.166 262.051 230.78 260.883 228.075L237.246 207.649L247.069 196.761L269.327 218.054C272.192 218.746 274.85 220.114 277.077 222.044Z" fill="#FCB4B4"/>
<path d="M257.991 206.931L229.096 169.827L201.729 119.739L201.019 189.206L242.042 222.899L257.991 206.931Z" fill="#2F2E41"/>
<path d="M132.297 104.802L138.917 74.7055L161.041 75.7697L166.72 97.6028L132.297 104.802Z" fill="#FCB4B4"/>
<path opacity="0.1" d="M132.297 104.802L138.917 74.7055L161.041 75.7697L166.72 97.6028L132.297 104.802Z" fill="black"/>
<path d="M149.431 82.781C163.111 82.781 174.201 71.6914 174.201 58.0118C174.201 44.3321 163.111 33.2425 149.431 33.2425C135.752 33.2425 124.662 44.3321 124.662 58.0118C124.662 71.6914 135.752 82.781 149.431 82.781Z" fill="#FCB4B4"/>
<path d="M138.352 67.5772C138.352 67.5772 135.853 67.5529 130.656 66.5864C125.458 65.6199 134.482 77.7652 134.482 77.7652C110.023 67.552 117.85 41.6466 117.85 41.6466C93.0266 36.8993 103.426 14.8319 103.426 14.8319C103.426 14.8319 111.608 -0.958821 136.762 0.0460072C161.916 1.05084 150.033 25.8597 150.033 25.8597C166.422 25.8908 168.265 40.6606 168.265 40.6606C168.265 40.6606 162.357 41.3981 151.621 44.1231C140.884 46.848 138.352 67.5772 138.352 67.5772Z" fill="#2F2E41"/>
<path d="M137.37 95.3231L136.251 93.1445C136.251 93.1445 116.347 95.4517 113.081 98.4972C109.815 101.543 102.35 115.073 102.35 115.073L118.68 129.07L137.37 95.3231Z" fill="#FFB6B6"/>
<path d="M162.071 94.7941C162.071 94.7941 177.001 90.8117 185.399 99.2099C193.797 107.608 203.595 123.005 203.595 123.005L203.128 135.135L179.8 123.89L162.071 94.7941Z" fill="#FFB6B6"/>
<path d="M165.876 93.1445C165.876 93.1445 185.399 86.1461 197.996 101.076C210.593 116.006 214.326 163.129 214.326 163.129C214.326 163.129 242.786 250.377 235.788 251.31C228.789 252.243 186.08 254.822 186.08 254.822L171.402 159.863L164.87 93.1445L165.876 93.1445Z" fill="#2F2E41"/>
<path d="M121.013 177.126L116.347 193.923L179.8 198.588C179.8 198.588 177.467 184.547 179.8 179.437L121.013 177.126Z" fill="#FCB4B4"/>
<path d="M156.938 286.303L159.738 326.427L194.973 325.494L193.797 284.903L156.938 286.303Z" fill="#FCB4B4"/>
<path d="M101.965 282.334L91.6191 325.961L128.505 325.711L137.903 290.051L101.965 282.334Z" fill="#FCB4B4"/>
<path d="M164.87 93.1445H136.251L113.081 123.938L118.213 186.924C118.213 186.924 129.878 183.658 146.207 183.658H181.2C181.2 183.658 176.068 167.328 182.599 160.797C189.131 154.265 184.466 123.938 184.466 123.938L164.87 93.1445Z" fill="white"/>
<path d="M114.014 188.79L87.8866 283.503C87.8866 283.503 126.36 298.962 149.581 294.499C172.802 290.035 204.528 288.635 204.528 288.635L182.133 192.523L114.014 188.79Z" fill="#2F2E41"/>
<path d="M174.433 223.443C180.071 228.193 182.191 234.953 179.168 238.54C176.144 242.128 169.124 241.186 163.484 236.434C161.205 234.566 159.406 232.18 158.238 229.475L134.602 209.048L144.424 198.161L166.683 219.454C169.548 220.146 172.205 221.514 174.433 223.443Z" fill="#FCB4B4"/>
<path d="M160.012 206.931L131.118 169.827L103.75 119.739L103.04 189.206L144.063 222.899L160.012 206.931Z" fill="#2F2E41"/>
<path d="M138.202 93.1445C138.202 93.1445 118.68 86.1461 106.083 101.076C93.4853 116.006 89.7528 163.129 89.7528 163.129C89.7528 163.129 61.2923 250.377 68.2908 251.31C75.2893 252.243 117.999 254.822 117.999 254.822L132.677 159.863L139.209 93.1445L138.202 93.1445Z" fill="#2F2E41"/>
<path d="M272.18 75.4151H271.247V237.78H272.18V75.4151Z" fill="#3F3D56"/>
<path d="M12.7696 241.979C22.0543 247.965 30.7511 255.981 38.8973 265.867V280.984C34.9221 279.631 19.7494 274.023 13.7587 265.153C6.8349 254.903 5.60316 239.343 11.3699 235.447C12.8722 234.435 14.6965 234.309 16.6981 234.864C23.0107 239.403 29.0481 244.909 34.8148 251.324C36.8584 254.464 38.1228 258.463 38.8973 262.503V262.694C31.4369 252.309 22.6654 245.572 12.7696 241.979Z" fill="#285F98"/>
<path d="M12.303 149.132C21.5877 155.118 30.2845 163.134 38.4307 173.021V176.473C37.6516 176.207 36.4478 175.783 34.9642 175.199C28.3016 167.3 20.7059 161.982 12.303 158.93C18.1818 162.719 23.8272 167.324 29.2441 172.703C23.5146 169.946 16.8147 165.859 13.2922 160.643C12.9189 160.092 12.5643 159.537 12.2284 158.977C6.30302 149.142 5.91109 138.355 11.3699 134.669C17.1367 130.773 27.2472 136.293 34.171 146.538C38.1741 152.468 39.2985 161.669 39.5271 168.364C39.1586 168.849 38.7946 169.344 38.4307 169.848C30.9703 159.462 22.1989 152.725 12.303 149.132Z" fill="#285F98"/>
<path d="M65.1555 204.283V204.288C64.493 206.121 63.6625 207.974 62.6734 209.798C61.2037 212.513 58.9455 215.033 56.3888 217.286C53.65 219.703 50.5614 221.812 47.7199 223.524C43.7541 225.918 40.2689 227.541 38.8972 228.157V226.688C46.7775 217.31 55.157 209.667 64.0918 203.91C54.6018 207.353 46.1523 213.698 38.8972 223.37V216.89C46.7775 207.512 55.157 199.869 64.0918 194.112C54.6018 197.555 46.1523 203.9 38.8972 213.572V207.092C46.6748 197.84 54.9331 190.277 63.7372 184.547C67.8616 187.865 68.2208 195.866 65.1555 204.283Z" fill="#285F98"/>
<path d="M39.3638 163.596H38.4307V325.961H39.3638V163.596Z" fill="#3F3D56"/>
</g>
<defs>
<clipPath id="clip0_4_1401">
<rect width="300" height="326.427" fill="white"/>
</clipPath>
</defs>
</svg>
